<?xml version="1.0" encoding="iso-8859-1"?>
<!-- Generator: Adobe Illustrator 19.0.0, SVG Export Plug-In . SVG Version: 6.00 Build 0)  -->
<svg version="1.1" id="Layer_1" xmlns="http://www.w3.org/2000/svg" xmlns:xlink="http://www.w3.org/1999/xlink" x="0px" y="0px"
	 viewBox="0 0 512 512" style="enable-background:new 0 0 512 512;" xml:space="preserve">
<g>
	<g>
		<path d="M409.843,0H102.157c-6.215,0-11.253,5.038-11.253,11.253v122.379V256v122.368v122.379c0,6.215,5.038,11.253,11.253,11.253
			h307.686c6.215,0,11.253-5.038,11.253-11.253V378.368V256V133.632V11.253C421.096,5.038,416.058,0,409.843,0z M398.59,489.494
			H113.41v-99.873h285.18V489.494z M398.59,367.115H113.41v-99.861h285.18V367.115z M398.59,122.379h-22.18
			c-6.215,0-11.253,5.038-11.253,11.253c0,6.215,5.038,11.253,11.253,11.253h22.18v99.861H113.41v-99.861h184.976
			c6.215,0,11.253-5.038,11.253-11.253c0-6.215-5.038-11.253-11.253-11.253H113.41V22.506h285.18V122.379z"/>
	</g>
</g>
<g>
	<g>
		<path d="M342.65,122.379h-4.501c-6.215,0-11.253,5.038-11.253,11.253c0,6.215,5.038,11.253,11.253,11.253h4.501
			c6.215,0,11.253-5.038,11.253-11.253C353.903,127.417,348.865,122.379,342.65,122.379z"/>
	</g>
</g>
<g>
</g>
<g>
</g>
<g>
</g>
<g>
</g>
<g>
</g>
<g>
</g>
<g>
</g>
<g>
</g>
<g>
</g>
<g>
</g>
<g>
</g>
<g>
</g>
<g>
</g>
<g>
</g>
<g>
</g>
</svg>
