<?xml version="1.0" encoding="UTF-8" standalone="no"?>
<svg
   xmlns:dc="http://purl.org/dc/elements/1.1/"
   xmlns:cc="http://creativecommons.org/ns#"
   xmlns:rdf="http://www.w3.org/1999/02/22-rdf-syntax-ns#"
   xmlns:svg="http://www.w3.org/2000/svg"
   xmlns="http://www.w3.org/2000/svg"
   xmlns:sodipodi="http://sodipodi.sourceforge.net/DTD/sodipodi-0.dtd"
   xmlns:inkscape="http://www.inkscape.org/namespaces/inkscape"
   id="Layer_1"
   data-name="Layer 1"
   viewBox="0 0 674.29 132.31"
   version="1.1"
   sodipodi:docname="Business.com Logo.svg"
   inkscape:version="0.92.2 2405546, 2018-03-11">
  <metadata
     id="metadata120">
    <rdf:RDF>
      <cc:Work
         rdf:about="">
        <dc:format>image/svg+xml</dc:format>
        <dc:type
           rdf:resource="http://purl.org/dc/dcmitype/StillImage" />
        <dc:title>BDC Logo</dc:title>
      </cc:Work>
    </rdf:RDF>
  </metadata>
  <sodipodi:namedview
     pagecolor="#ffffff"
     bordercolor="#666666"
     borderopacity="1"
     objecttolerance="10"
     gridtolerance="10"
     guidetolerance="10"
     inkscape:pageopacity="0"
     inkscape:pageshadow="2"
     inkscape:window-width="1920"
     inkscape:window-height="1020"
     id="namedview118"
     showgrid="false"
     inkscape:zoom="2.5478652"
     inkscape:cx="337.14499"
     inkscape:cy="66.154999"
     inkscape:window-x="0"
     inkscape:window-y="0"
     inkscape:window-maximized="1"
     inkscape:current-layer="g135" />
  <defs
     id="defs87">
  </defs>
  <title
     id="title89">BDC Logo</title>
  <g
     id="g135">
    <path
       id="path91"
       d="M60.56,40.25a45.68,45.68,0,0,0-30,8.35V0L0,1V15.26H11.22V130.89h19.3v-7.55A45.84,45.84,0,1,0,60.56,40.25Zm14.07,65.58,1.57,13.93-12.59-8.1A26.57,26.57,0,1,1,74.63,105.83Z"
       class="cls-1" />
    <path
       id="path93"
       d="M167.16,130.66h19.39V41L156,42V56.27h11.22V95.53c0,8.58-6.15,16.24-14.67,17.34a16.91,16.91,0,0,1-19.11-16.75V41L103,42V56.27h11.22V96.12a36.3,36.3,0,0,0,36.19,36.19h0a35.86,35.86,0,0,0,16.89-4.22h0"
       class="cls-1" />
    <path
       id="path95"
       d="M358.18,42h0a35.86,35.86,0,0,0-16.89,4.22V42.09l-30.53,1V57.35H322v74.1h19.31V78.74c0-8.58,6.15-16.24,14.67-17.33a16.91,16.91,0,0,1,19.11,16.75v53.3h19.3V78.15A36.3,36.3,0,0,0,358.18,42Z"
       class="cls-1" />
    <polygon
       id="polygon97"
       points="267.92 42.01 267.92 56.27 279.13 56.27 279.13 130.89 298.44 130.89 298.44 41.01 267.92 42.01"
       class="cls-1" />
    <circle
       id="circle99"
       r="12"
       cy="15.26"
       cx="286.94"
       class="cls-1" />
    <path
       id="path101"
       d="M232.29,76.58c-16.82-3.42-16.82-6.63-16.82-9V67.39c0-3.89,4.92-8.08,12.87-8.08a30.61,30.61,0,0,1,18.46,6.42l11.58-15.16a48.64,48.64,0,0,0-29.83-10c-18,0-32.07,11.85-32.07,27V67.7c0,18.45,16,24.17,31.56,27.33,17.13,3.48,17.13,6.7,17.13,9.29v0.21c0,6.09-7,8.81-14,8.81a30,30,0,0,1-21.54-8.87l-13.23,13.72a49.49,49.49,0,0,0,34.56,13.94c19.24,0,33.21-11.65,33.21-27.7v-0.21C264.15,85.57,248,79.78,232.29,76.58Z"
       class="cls-1" />
    <path
       id="path103"
       d="M537.72,76.58c-16.82-3.42-16.82-6.63-16.82-9V67.39c0-3.89,4.92-8.08,12.87-8.08a30.61,30.61,0,0,1,18.46,6.42l11.58-15.16a48.64,48.64,0,0,0-29.83-10c-18,0-32.07,11.85-32.07,27V67.7c0,18.45,16,24.17,31.56,27.33,17.13,3.48,17.13,6.7,17.13,9.29v0.21c0,6.09-7,8.81-14,8.81A30,30,0,0,1,515,104.46l-13.23,13.72a49.49,49.49,0,0,0,34.56,13.94c19.24,0,33.21-11.65,33.21-27.7v-0.21C569.58,85.57,553.47,79.78,537.72,76.58Z"
       class="cls-1" />
    <path
       id="path105"
       d="M611.84,76.58C595,73.15,595,69.94,595,67.6V67.39c0-3.89,4.92-8.08,12.87-8.08a30.61,30.61,0,0,1,18.46,6.42l11.58-15.16a48.64,48.64,0,0,0-29.83-10c-18,0-32.07,11.85-32.07,27V67.7c0,18.45,16,24.17,31.56,27.33,17.13,3.48,17.13,6.7,17.13,9.29v0.21c0,6.09-7,8.81-14,8.81a30,30,0,0,1-21.54-8.87l-13.23,13.72a49.49,49.49,0,0,0,34.56,13.94c19.24,0,33.21-11.65,33.21-27.7v-0.21C643.7,85.57,627.59,79.78,611.84,76.58Z"
       class="cls-1" />
    <path
       id="path107"
       d="M654,61.75a10.16,10.16,0,1,1,20.32,0,9.83,9.83,0,0,1-3.36,7.84l-3-2.79a6.62,6.62,0,0,0,2.43-5.09c0-3.27-2.8-5.65-6.23-5.65s-6.31,2.42-6.31,5.87a6.93,6.93,0,0,0,2.43,5.09l-2.66,2.71A10,10,0,0,1,654,61.75Z"
       class="cls-1" />
    <path
       id="path109"
       d="M654,84.26a10.12,10.12,0,0,1,10.11-10.41A10.47,10.47,0,1,1,654,84.26Zm16.41,0c0-3.6-2.8-5.91-6.23-5.91a6,6,0,0,0-6.31,6c0,3.64,2.8,5.95,6.23,5.95A6,6,0,0,0,670.39,84.26Z"
       class="cls-1" />
    <path
       id="path111"
       d="M674.29,123.29c0,4.27-2.69,6.88-7.45,6.88H654.41v-4.5h11.07c3.1,0,4.76-1.45,4.76-4s-1.7-4.2-4.83-4.2h-11V113h11.1c3,0,4.72-1.49,4.72-4s-1.84-4.2-4.87-4.2h-11v-4.5h19.48v4.5h-3a7,7,0,0,1,3.36,6,6.18,6.18,0,0,1-3.43,5.84A8,8,0,0,1,674.29,123.29Z"
       class="cls-1" />
    <ellipse
       id="ellipse113"
       ry="2.9"
       rx="2.88"
       cy="43.65"
       cx="656.85"
       class="cls-1" />
    <path
       id="path115"
       d="M494.75,94a45.84,45.84,0,1,0-91-8s0,0.07,0,.1h0c0,0.23,0,.45,0,0.68,0,0.46,0,.91,0,1.37s0.06,1,.1,1.52c0,0.17,0,.35,0,0.52,0,0.53.11,1.06,0.18,1.58,0,0.17,0,.35.07,0.52,0.06,0.46.13,0.92,0.21,1.38,0,0.12,0,.23.05,0.35h0c3.9,21.49,23.35,37.83,46.78,37.83a47.88,47.88,0,0,0,40.63-22L475.19,100a28.63,28.63,0,0,1-23.93,12.52c-12.61,0-23.31-7.8-26.9-18.53h70.38ZM449.61,59.51A26.48,26.48,0,0,1,474.85,78H424.38A26.48,26.48,0,0,1,449.61,59.51Z"
       class="cls-1" />
  </g>
</svg>
