<?xml version="1.0" encoding="iso-8859-1"?>
<!-- Generator: Adobe Illustrator 19.0.0, SVG Export Plug-In . SVG Version: 6.00 Build 0)  -->
<svg version="1.1" id="Capa_1" xmlns="http://www.w3.org/2000/svg" xmlns:xlink="http://www.w3.org/1999/xlink" x="0px" y="0px"
	 viewBox="0 0 508.1 508.1" style="enable-background:new 0 0 508.1 508.1;" xml:space="preserve">
<g>
	<g>
		<path d="M467.2,0.05H40.8C18.3,0.05,0,18.35,0,40.85v426.5c0,22.4,18.3,40.7,40.8,40.7h426.5c22.5,0,40.8-18.3,40.8-40.8V40.85
			C508,18.35,489.7,0.05,467.2,0.05z M239.9,479.85H40.8c-6.9,0-12.5-5.6-12.5-12.5V40.85c0-6.9,5.6-12.5,12.5-12.5h199.1V479.85z
			 M467.3,479.75H268.1V28.25h199.1c6.9,0,12.5,5.6,12.5,12.5v426.5h0.1C479.8,474.15,474.2,479.75,467.3,479.75z"/>
	</g>
</g>
<g>
	<g>
		<path d="M188.7,264.95c-5.5-5.5-14.4-5.5-20,0l-20.5,20.5v-96.9c0-7.8-6.3-14.1-14.1-14.1c-7.8,0-14.1,6.3-14.1,14.1v96.9
			l-20.5-20.4c-5.5-5.5-14.4-5.5-20,0c-5.5,5.5-5.5,14.4,0,20l44.6,44.5c2.8,2.8,6.4,4.1,10,4.1c3.6,0,7.2-1.4,10-4.1l44.6-44.6
			C194.2,279.45,194.2,270.55,188.7,264.95z"/>
	</g>
</g>
<g>
	<g>
		<path d="M428.5,223.15l-44.6-44.6c-2.8-2.8-6.4-4.1-10-4.1c-3.6,0-7.2,1.4-10,4.1l-44.6,44.6c-5.5,5.5-5.5,14.4,0,20
			c5.5,5.5,14.4,5.5,20,0l20.5-20.5v96.9c0,7.8,6.3,14.1,14.1,14.1c7.8,0,14.1-6.3,14.1-14.1v-96.9l20.5,20.5c5.5,5.5,14.4,5.5,20,0
			C434,237.65,434,228.75,428.5,223.15z"/>
	</g>
</g>
<g>
</g>
<g>
</g>
<g>
</g>
<g>
</g>
<g>
</g>
<g>
</g>
<g>
</g>
<g>
</g>
<g>
</g>
<g>
</g>
<g>
</g>
<g>
</g>
<g>
</g>
<g>
</g>
<g>
</g>
</svg>
