<svg id="Layer_1" data-name="Layer 1" xmlns="http://www.w3.org/2000/svg" viewBox="0 0 320.25 96.58"><defs><style>.cls-1{fill:#fff;}.cls-2{fill:#33b3e3;}</style></defs><title>Artboard 1</title><path class="cls-1" d="M248.63,45.4a21.36,21.36,0,0,0-4.54-7.64,20.81,20.81,0,0,0-7.28-5A25.13,25.13,0,0,0,227,31c-7.11,0-17.26,1.54-23.59,7.05a6.93,6.93,0,0,0-1.71,2.56,8,8,0,0,0-.64,3.17,7.47,7.47,0,0,0,.64,3.07,8.31,8.31,0,0,0,1.71,2.5A8.18,8.18,0,0,0,206,51a7.66,7.66,0,0,0,3.1.64,7.91,7.91,0,0,0,3.17-.64,8.36,8.36,0,0,0,4.35-4.22,6.81,6.81,0,0,0,.67-3.07,2.21,2.21,0,0,1,1.65-2.36,14.13,14.13,0,0,1,13.94,4.49q2.65,3,2.65,9.35v3.68a73.57,73.57,0,0,0-17.84,1.83,39.42,39.42,0,0,0-11.51,4.61A17.53,17.53,0,0,0,200,71.6a14.62,14.62,0,0,0-1.86,7A18.89,18.89,0,0,0,199.46,86a14.55,14.55,0,0,0,3.75,5.32A15.71,15.71,0,0,0,209,94.5a23.93,23.93,0,0,0,7.31,1.07,31.3,31.3,0,0,0,6.09-.55,24.31,24.31,0,0,0,5.18-1.64,28.36,28.36,0,0,0,4.72-2.71,51.55,51.55,0,0,0,4.66-3.74l1.34,4.44A4.09,4.09,0,0,0,240.07,94a7.24,7.24,0,0,0,3.35.64h6.76V55.14A29.34,29.34,0,0,0,248.63,45.4ZM235.5,78.57a30.71,30.71,0,0,1-3.26,2.91,20,20,0,0,1-3.35,2.06,16.22,16.22,0,0,1-3.68,1.26,20.25,20.25,0,0,1-4.26.42,10.1,10.1,0,0,1-6.12-1.72q-2.34-1.72-2.34-5.71a6.68,6.68,0,0,1,1.13-3.74,9.09,9.09,0,0,1,3.81-3,28.92,28.92,0,0,1,7.09-2.12,61.2,61.2,0,0,1,11-.83Z"/><path class="cls-2" d="M26.19,17.7a9.93,9.93,0,0,1-5.18,5,9.43,9.43,0,0,1-3.77.76,9.06,9.06,0,0,1-3.68-.76,9.7,9.7,0,0,1-3-2,9.8,9.8,0,0,1-2-3A8.87,8.87,0,0,1,7.74,14a9.47,9.47,0,0,1,.76-3.78,9.62,9.62,0,0,1,2-3,9.76,9.76,0,0,1,3-2,9,9,0,0,1,3.68-.76A9.42,9.42,0,0,1,21,5.19a10,10,0,0,1,3.07,2,9.78,9.78,0,0,1,2.1,3A9.14,9.14,0,0,1,27,14a8.56,8.56,0,0,1-.79,3.65"/><path class="cls-1" d="M315.05,94.72V55a31.72,31.72,0,0,0-1.37-9.59,21.47,21.47,0,0,0-4-7.49A18,18,0,0,0,303.06,33,22.39,22.39,0,0,0,294,31.28a26.48,26.48,0,0,0-5.84.61,22.62,22.62,0,0,0-5,1.77,27.76,27.76,0,0,0-4.45,2.74,34.37,34.37,0,0,0-4,3.53l-1-4.93a3.7,3.7,0,0,0-3.84-2.75H253.43v4.69c0,3.53,6.82,1,6.82,7.38v50.4h15.42V49.55a26.16,26.16,0,0,1,6.45-4.81A15.64,15.64,0,0,1,289.42,43q5.3,0,7.95,3.14T300,55V94.72Z"/><path class="cls-1" d="M25.23,32.25H3V37c0,3.1,6.89,1.32,6.89,7.42V94.72H25.23Z"/><path class="cls-1" d="M94.05,94.72V55a31.84,31.84,0,0,0-1.37-9.59,21.48,21.48,0,0,0-4-7.49A18,18,0,0,0,82.06,33,22.39,22.39,0,0,0,73,31.28a26.48,26.48,0,0,0-5.84.61,22.62,22.62,0,0,0-5,1.77,27.71,27.71,0,0,0-4.44,2.74,34.3,34.3,0,0,0-4,3.53l-1-4.93a3.7,3.7,0,0,0-3.84-2.75H32.43v4.69c0,3.53,6.82,1,6.82,7.38v50.4H54.66V49.55a26.17,26.17,0,0,1,6.45-4.81A15.64,15.64,0,0,1,68.42,43q5.3,0,7.95,3.14T79,55V94.72Z"/><path class="cls-1" d="M190.53,44.92a20.41,20.41,0,0,0-4.17-7.42,17.65,17.65,0,0,0-6.76-4.63,25,25,0,0,0-9.19-1.58,26.73,26.73,0,0,0-5.94.67A22.25,22.25,0,0,0,158.89,34a20,20,0,0,0-4.81,3.63A19,19,0,0,0,150.43,43a19.25,19.25,0,0,0-5.69-8.49A14.58,14.58,0,0,0,135,31.28a19.55,19.55,0,0,0-5.15.64,20.58,20.58,0,0,0-4.38,1.74,21.93,21.93,0,0,0-3.84,2.62,35.56,35.56,0,0,0-3.44,3.35l-1-4.63a3.7,3.7,0,0,0-3.84-2.74H97.9v5.43c0,2.54,6.7,2,6.7,6.8V94.72h14.65V49a20.49,20.49,0,0,1,5.27-4.41A12,12,0,0,1,130.58,43q4.93,0,7.46,2.86T140.57,55V94.72h15.1V55a14.52,14.52,0,0,1,.85-5.17,10,10,0,0,1,5.81-6,11.49,11.49,0,0,1,4.29-.79q5.05,0,7.67,3t2.62,9V94.72h15V55a32.34,32.34,0,0,0-1.43-10.05"/></svg>